<svg xmlns="http://www.w3.org/2000/svg" viewBox="0 0 360 200"><rect width="360" height="138" fill="#F2E5CF"/><rect y="116" width="360" height="22" fill="#E5D9C4"/><rect y="138" width="360" height="62" fill="#C9A57A"/><rect y="138" width="360" height="3" fill="#AA8C67"/><rect x="28" y="18" width="66" height="58" rx="3" fill="#8A6040"/><rect x="32" y="22" width="58" height="50" fill="#EAF3F4"/><path d="M32 57L49.4 38L63.9 52L78.4 36L90 49.5V72H32Z" fill="#BFCBC9"/><path d="M32 62Q61 55 90 61V72H32Z" fill="#D8B98F"/><path d="M61 22v50M32 44.5h58" fill="none" stroke="#8A6040" stroke-width="3"/><path d="M318 100v-21q0-13 13-13t13 13v21Z" fill="#CFC4AF"/><rect x="10" y="140" width="340" height="56" rx="3" fill="#8E2622"/><path d="M15 144h330v48h-330Z" fill="none" stroke="#C9A04E" stroke-width="1.6" stroke-dasharray="5 3"/><path d="M58 160Q180 150 302 160L316 192H44Z" fill="#F4EFE4"/><path d="M60 166Q180 157 300 166" fill="none" stroke="#D9CDB4" stroke-width="1.4" stroke-linecap="round" stroke-linejoin="round" stroke-dasharray="4 3"/><g transform="translate(262 186) scale(1.9)"><path d="M-7 0Q-11 -12-5 -18V-23H5V-18Q11 -12 7 0Z" fill="#C47A4A"/><path d="M2 -23H5V-18Q11 -12 7 0H3Q8 -12 2 -18Z" fill="#A0643C"/><ellipse cx="0" cy="-23" rx="5" ry="1.4" fill="#895533"/><path d="M7 -18Q14 -16 9 -8" fill="none" stroke="#C47A4A" stroke-width="2" stroke-linecap="round" stroke-linejoin="round"/></g><g transform="translate(112 184) rotate(-9) scale(1.45)"><rect x="-13" y="-40" width="26" height="40" rx="2.5" fill="#2E7D9B"/><rect x="-13" y="-40" width="26" height="5" rx="2" fill="#24647C"/><path d="M-13 -33h26" fill="none" stroke="#FFFFFF" stroke-width="1" stroke-linecap="round" stroke-linejoin="round" stroke-dasharray="2 1.6" opacity=".7"/><rect x="-9" y="-28" width="18" height="18" rx="2" fill="#FFFFFF"/><path d="M-5 -22h8l-1 9h-6Z" fill="#9ED0E6"/><path d="M4.5 -27C4.88 -25.25 7.02 -24.79 7.02 -22.52A2.52 2.52 0 1 1 1.98 -22.52C1.98 -24.79 4.12 -25.25 4.5 -27Z" fill="#5FA9CF"/><rect x="-13" y="-6" width="26" height="6" rx="2" fill="#276A83"/></g><path d="M159 116L164.5 183Q165.5 186 168.5 186H199.5Q202.5 186 203.5 183ZL209 116Z" fill="#E9F1F3" opacity=".9"/><path d="M160.54 135.6L164.5 183Q165.5 186 168.5 186H199.5Q202.5 186 203.5 183L207.46 135.6Z" fill="#D3E6EA"/><ellipse cx="184" cy="135.6" rx="23.46" ry="4.69" fill="#E4F0F2"/><ellipse cx="184" cy="116" rx="25" ry="5" fill="none" stroke="#CFDDE1" stroke-width="2"/><path d="M165 124L170.5 176" fill="none" stroke="#FFFFFF" stroke-width="3" stroke-linecap="round" opacity=".8"/><path d="M193 134L211 92" fill="none" stroke="#AEB8BD" stroke-width="3.4" stroke-linecap="round" stroke-linejoin="round"/><path d="M190 141L193 134" fill="none" stroke="#AEB8BD" stroke-width="3.4" stroke-linecap="round" stroke-linejoin="round" opacity=".45"/><g transform="translate(150 196) scale(1.1)"><rect x="-13" y="-21" width="26" height="18" rx="2" fill="#B9C2C7"/><circle cx="-9" cy="-15" r="2.3" fill="#E9ECEE"/><circle cx="-9" cy="-15" r="1.3" fill="#E8B630"/><circle cx="-3" cy="-15" r="2.3" fill="#E9ECEE"/><circle cx="-3" cy="-15" r="1.3" fill="#E8B630"/><circle cx="3" cy="-15" r="2.3" fill="#E9ECEE"/><circle cx="3" cy="-15" r="1.3" fill="#E8B630"/><circle cx="9" cy="-15" r="2.3" fill="#E9ECEE"/><circle cx="9" cy="-15" r="1.3" fill="#E8B630"/><circle cx="-9" cy="-8" r="2.3" fill="#E9ECEE"/><circle cx="-9" cy="-8" r="1.3" fill="#E8B630"/><circle cx="-3" cy="-8" r="2.3" fill="#E9ECEE"/><circle cx="-3" cy="-8" r="1.3" fill="#E8B630"/><circle cx="3" cy="-8" r="2.3" fill="#E9ECEE"/><circle cx="3" cy="-8" r="1.3" fill="#E8B630"/><circle cx="9" cy="-8" r="2.3" fill="#E9ECEE"/><circle cx="9" cy="-8" r="1.3" fill="#E8B630"/></g></svg>
