<svg xmlns="http://www.w3.org/2000/svg" viewBox="0 0 360 200"><rect x="0" y="0" width="360" height="128" fill="#F2E4CE"/><rect x="0" y="106" width="360" height="22" fill="#E5D8C3"/><rect x="0" y="128" width="360" height="72" fill="#C49F74"/><rect x="0" y="128" width="360" height="3" fill="#A68762"/><rect x="254" y="14" width="70" height="54" rx="3" fill="#8A6040"/><rect x="258" y="18" width="62" height="46" fill="#EAF3F4"/><path d="M258 50.2L276.6 32.72L292.1 45.6L307.6 30.88L320 43.3V64H258Z" fill="#BFCBC9"/><path d="M258 54.8Q289 48.36 320 53.88V64H258Z" fill="#D8B98F"/><path d="M289 18v46M258 38.7h62" fill="none" stroke="#8A6040" stroke-width="3"/><path d="M40 96v-21q0-13 13-13t13 13v21Z" fill="#CFC4AF"/><g transform="translate(53 96) scale(0.85)"><path d="M-7 0Q-11 -12-5 -18V-23H5V-18Q11 -12 7 0Z" fill="#3F7F8C"/><path d="M2 -23H5V-18Q11 -12 7 0H3Q8 -12 2 -18Z" fill="#336872"/><ellipse cx="0" cy="-23" rx="5" ry="1.4" fill="#2C5862"/><path d="M7 -18Q14 -16 9 -8" fill="none" stroke="#3F7F8C" stroke-width="2" stroke-linecap="round" stroke-linejoin="round"/></g><path d="M20 150H340L352 198H8Z" fill="#F4EEE2"/><path d="M20 150H340L342 155H18Z" fill="#E3D8C4"/><path d="M28 160H332" fill="none" stroke="#B6322D" stroke-width="1.4" stroke-linecap="round" stroke-linejoin="round"/><g transform="translate(98 152) scale(1.3)"><g transform="translate(0 40)"><path d="M-13 -70C-15 -58-16 -50-17 -42H17C16 -50 15 -58 13 -70Z" fill="#8A5F78"/><path d="M0 -106C-12 -106-17 -98-17 -86C-17 -76-21 -64-24 -44Q-12 -38 0 -40Q12 -38 24 -44C21 -64 17 -76 17 -86C17 -98 12 -106 0 -106Z" fill="#E6D8BE"/><path d="M8 -104C14 -100 17 -94 17 -86C17 -76 21 -64 24 -44Q19 -42 15 -41C16 -60 13 -74 12 -84C12 -94 11 -100 8 -104Z" fill="#BCB19B"/><ellipse cx="0" cy="-85" rx="8" ry="9.5" fill="#D9A27A"/><path d="M0 -94.5A8 9.5 0 0 1 0 -75.5A3.6 9.5 0 0 0 0 -94.5Z" fill="#C99671"/><path d="M-7.5 -90Q0 -97 7.5 -90Q4 -93.5 0 -93.5Q-4 -93.5-7.5 -90Z" fill="#3B2A22"/></g><path d="M-32 0Q-33 -14-20 -18Q0 -21 20 -18Q33 -14 32 0Q0 2-32 0Z" fill="#8A5F78"/><path d="M8 -19.5Q16 -19 20 -18Q33 -14 32 0Q24 1.2 16 1.6Q20 -10 8 -19.5Z" fill="#734F64"/><circle cx="-12" cy="-14" r="3.3" fill="#D9A27A"/><circle cx="12" cy="-14" r="3.3" fill="#D9A27A"/></g><g transform="translate(212 150) scale(1.3)"><g transform="translate(0 38)"><path d="M-14 -70C-16 -55-17 -46-17.5 -40Q0 -37.5 17.5 -40C17 -46 16 -55 14 -70Z" fill="#C9BBA0"/><path d="M8 -70C10 -55 11 -46 11.5 -38.6Q15 -39 17.5 -40C17 -46 16 -55 14 -70Z" fill="#ACA089"/><path d="M-14 -69Q-20 -66-20.5 -57L-21.5 -40Q-19 -38-16.5 -39Q-15.5 -52-12 -62Z" fill="#C9BBA0"/><path d="M14 -69Q20 -66 20.5 -57L21.5 -40Q19 -38 16.5 -39Q15.5 -52 12 -62Z" fill="#ACA089"/><path d="M-14 -70Q-15.5 -56-14.5 -42H-1.5V-58L-6 -70Z" fill="#4A5A55"/><path d="M14 -70Q15.5 -56 14.5 -42H1.5V-58L6 -70Z" fill="#3B4844"/><circle cx="-3.2" cy="-54" r="0.8" fill="#3B4844"/><circle cx="-3.2" cy="-48" r="0.8" fill="#3B4844"/><rect x="-3.5" y="-76" width="7" height="7" fill="#B27D58"/><circle cx="-9" cy="-84" r="2.1" fill="#B67F5A"/><circle cx="9" cy="-84" r="2.1" fill="#B67F5A"/><circle cx="0" cy="-84" r="9" fill="#C68B62"/><path d="M0 -93A9 9 0 0 1 0 -75A4.05 9 0 0 0 0 -93Z" fill="#B8815B"/><path d="M-9 -86Q-9.5 -73 0 -71Q9.5 -73 9 -86Q7 -81 0 -80.5Q-7 -81-9 -86Z" fill="#3B2A22"/><path d="M-10 -90Q-10.5 -97.5-7 -99Q0 -102 7 -99Q10.5 -97.5 10 -90Q0 -92.5-10 -90Z" fill="#B39674"/><ellipse cx="0" cy="-90.3" rx="10.6" ry="3" fill="#9C7F5E"/></g><path d="M-30 0Q-31 -14-20 -18Q0 -21 20 -18Q31 -14 30 0Q0 2-30 0Z" fill="#ACA089"/><path d="M8 -19.5Q16 -19 20 -18Q31 -14 30 0Q24 1.2 16 1.6Q20 -10 8 -19.5Z" fill="#908673"/><circle cx="-13" cy="-15" r="3.3" fill="#C68B62"/><circle cx="13" cy="-15" r="3.3" fill="#C68B62"/></g><g transform="translate(64 184) scale(1.8)"><ellipse cx="0" cy="-7" rx="10" ry="2.5" fill="#D9A441"/><path d="M-10 -7Q-9 0 0 0Q9 0 10 -7Z" fill="#C47A4A"/><path d="M2 -.3Q9 -1 10 -7H7Q6 -2 2 -.3Z" fill="#A0643C"/></g><g transform="translate(150 190) scale(1.7)"><ellipse cx="0" cy="-7" rx="10" ry="2.5" fill="#7FA36B"/><path d="M-10 -7Q-9 0 0 0Q9 0 10 -7Z" fill="#3F7F8C"/><path d="M2 -.3Q9 -1 10 -7H7Q6 -2 2 -.3Z" fill="#336872"/></g><g transform="translate(112 186) scale(1.6)"><ellipse cx="0" cy="-3" rx="14" ry="4" fill="#B9874A"/><ellipse cx="0" cy="-4" rx="11" ry="2.8" fill="#C99A5C"/><path d="M-6 -4h12M-5 -2.5h10" fill="none" stroke="#9C7038" stroke-width="0.8" stroke-linecap="round" stroke-linejoin="round"/><circle cx="-4" cy="-4.5" r="0.5" fill="#8A6030"/><circle cx="3" cy="-3.6" r="0.5" fill="#8A6030"/><circle cx="6" cy="-4.8" r="0.5" fill="#8A6030"/></g><g transform="translate(196 188) scale(1.2)"><ellipse cx="-6" cy="-6" rx="5" ry="7.5" fill="#4F7A43"/><ellipse cx="6" cy="-6" rx="5" ry="7.5" fill="#4F7A43"/><ellipse cx="0" cy="-9" rx="5" ry="9" fill="#6E9A5A"/><ellipse cx="-3" cy="-5" rx="4" ry="5.5" fill="#6E9A5A"/><ellipse cx="3.5" cy="-5" rx="4" ry="5.5" fill="#7CA46A"/><path d="M0 -1V-14M-5 -2l-3 -8M5 -2l3 -8" fill="none" stroke="#436738" stroke-width="0.8" stroke-linecap="round" stroke-linejoin="round"/></g><g transform="translate(220 178) rotate(-70)"><path d="M-3 0Q0 18 1.5 20Q3 18 3.5 0Z" fill="#E08A2E"/><path d="M-1 5h3M-.5 10h2.5" fill="none" stroke="#C46E1F" stroke-width="0.7" stroke-linecap="round" stroke-linejoin="round"/><path d="M0 0l-4 -8M.5 0V-9M1 0l4 -7" fill="none" stroke="#5F8A55" stroke-width="1.4" stroke-linecap="round" stroke-linejoin="round"/></g><g transform="translate(226 186) rotate(-78)"><path d="M-3 0Q0 18 1.5 20Q3 18 3.5 0Z" fill="#E08A2E"/><path d="M-1 5h3M-.5 10h2.5" fill="none" stroke="#C46E1F" stroke-width="0.7" stroke-linecap="round" stroke-linejoin="round"/><path d="M0 0l-4 -8M.5 0V-9M1 0l4 -7" fill="none" stroke="#5F8A55" stroke-width="1.4" stroke-linecap="round" stroke-linejoin="round"/></g><circle cx="256" cy="186" r="5.6" fill="#D2483A"/><circle cx="268" cy="189" r="5" fill="#D2483A"/><circle cx="262" cy="182" r="1.5" fill="#E8806F"/><circle cx="292" cy="188" r="4.4" fill="#EE9A3A"/><circle cx="301" cy="186" r="4.4" fill="#E8A13A"/><circle cx="297" cy="192" r="4.4" fill="#EE9A3A"/><g transform="translate(322 192) scale(1.6)"><circle cx="0" cy="-6" r="6" fill="#B6322D"/><path d="M-2 -12l1 -3 1 2 1 -2 1 3Z" fill="#8E2622"/><circle cx="2" cy="-8" r="1.6" fill="#D0544E"/></g><g transform="translate(36 194) scale(1.1)"><path d="M-7 0Q-11 -12-5 -18V-23H5V-18Q11 -12 7 0Z" fill="#3F7F8C"/><path d="M2 -23H5V-18Q11 -12 7 0H3Q8 -12 2 -18Z" fill="#336872"/><ellipse cx="0" cy="-23" rx="5" ry="1.4" fill="#2C5862"/><path d="M7 -18Q14 -16 9 -8" fill="none" stroke="#3F7F8C" stroke-width="2" stroke-linecap="round" stroke-linejoin="round"/></g><g transform="translate(340 178)"><path d="M-5 -14H5L4 0H-4Z" fill="#DCEEF3"/><path d="M-4.6 -9H4.6L4 0H-4Z" fill="#9DD0DE"/><ellipse cx="0" cy="-14" rx="5" ry="1.2" fill="#EEF7F9"/></g></svg>
