<svg xmlns="http://www.w3.org/2000/svg" viewBox="0 0 360 200"><rect x="0" y="0" width="360" height="200" fill="#F3E9D8"/><rect x="0" y="132" width="360" height="18" fill="#E9DFCF"/><rect x="0" y="150" width="360" height="50" fill="#D9BE96"/><rect x="0" y="150" width="360" height="2.5" fill="#BAA381"/><rect x="20" y="176" width="320" height="22" rx="3" fill="#8E2622"/><path d="M25 180h310v14h-310Z" fill="none" stroke="#C9A04E" stroke-width="1.6" stroke-dasharray="5 3"/><ellipse cx="122" cy="179" rx="44" ry="4.4" fill="rgba(0,0,0,.08)"/><path d="M112 168L102 154L92 168" fill="none" stroke="#C8BA9E" stroke-width="10.4" stroke-linecap="round" stroke-linejoin="round"/><path d="M142 177Q142 156 130 155L112 157Q104 168 112 177Z" fill="#E9D9B8"/><path d="M142 177H112V173H142Z" fill="#C8BA9E"/><path d="M114 168L104 152L92 165" fill="none" stroke="#E9D9B8" stroke-width="11.2" stroke-linecap="round" stroke-linejoin="round"/><circle cx="91" cy="167" r="4.6" fill="#E9B894"/><path d="M136 162L130 152L124 148" fill="none" stroke="#E9D9B8" stroke-width="8.8" stroke-linecap="round" stroke-linejoin="round"/><circle cx="123" cy="146" r="4.2" fill="#E9B894"/><circle cx="150" cy="166.8" r="11.2" fill="#E9B894"/><circle cx="147.6" cy="168.8" r="6" fill="#DBAC8B"/><path d="M161.2 166.8A11.2 11.2 0 0 1 148 155.8Q153 160 161.2 166.8Z" fill="#3B2A22"/><g transform="translate(182 178) scale(1.75)"><path d="M30 -15L4 -5" fill="none" stroke="#705571" stroke-width="10.5" stroke-linecap="round" stroke-linejoin="round"/><path d="M4 -5L36 -3" fill="none" stroke="#705571" stroke-width="8.92" stroke-linecap="round" stroke-linejoin="round"/><ellipse cx="32.5" cy="-2" rx="5.5" ry="2.8" transform="rotate(0 32.5 -2)" fill="#3B2F28"/><path d="M6 -38L6 -20L0 -5" fill="none" stroke="#705571" stroke-width="7.4" stroke-linecap="round" stroke-linejoin="round"/><ellipse cx="-0.56" cy="-3.61" rx="4.21" ry="3.51" transform="rotate(111.8 -0.56 -3.61)" fill="#C3916D"/><path d="M6 -38L30 -15" fill="none" stroke="#8C6B8E" stroke-width="20" stroke-linecap="round" stroke-linejoin="round"/><path d="M30 -15L6.2 -5.65" fill="none" stroke="#8C6B8E" stroke-width="16.8" stroke-linecap="round" stroke-linejoin="round"/><path d="M6 -38L-3 -31" fill="none" stroke="#C3916D" stroke-width="6.45" stroke-linecap="round" stroke-linejoin="round"/><g transform="rotate(-62 -13 -24)"><circle cx="-12.2" cy="-24.6" r="11.01" fill="#C9B79C"/><ellipse cx="-16.27" cy="-22.97" rx="6.19" ry="7.74" transform="rotate(0 -16.27 -22.97)" fill="#D9A27A"/><ellipse cx="-17.73" cy="-22.28" rx="2.75" ry="6.19" transform="rotate(0 -17.73 -22.28)" fill="#C99671"/></g><path d="M-2.55 -31.7L6 -38" fill="none" stroke="#C9B79C" stroke-width="16" stroke-linecap="round" stroke-linejoin="round"/><path d="M30 -15L2 -4" fill="none" stroke="#8C6B8E" stroke-width="10.5" stroke-linecap="round" stroke-linejoin="round"/><path d="M2 -4L34 -2" fill="none" stroke="#8C6B8E" stroke-width="8.92" stroke-linecap="round" stroke-linejoin="round"/><ellipse cx="30.5" cy="-1" rx="5.5" ry="2.8" transform="rotate(0 30.5 -1)" fill="#4A3A30"/><path d="M6 -38L0 -20L-6 -5" fill="none" stroke="#8C6B8E" stroke-width="7.4" stroke-linecap="round" stroke-linejoin="round"/><ellipse cx="-6.56" cy="-3.61" rx="4.21" ry="3.51" transform="rotate(111.8 -6.56 -3.61)" fill="#D9A27A"/></g><circle cx="158.4" cy="157.4" r="1.6" fill="#1F6F7A"/><circle cx="156" cy="159.5" r="2.1" fill="#1F6F7A"/><circle cx="153.6" cy="161.6" r="2.6" fill="#1F6F7A"/><path d="M114 152L114 130" fill="none" stroke="#1F6F7A" stroke-width="3" stroke-linecap="round" stroke-linejoin="round"/><path d="M114 130L117.36 136.14L110.64 136.14Z" fill="#1F6F7A"/><rect x="30" y="20" width="68" height="20" rx="10" fill="#FFFFFF"/><circle cx="40" cy="30" r="4.5" fill="#1F6F7A"/><circle cx="52" cy="30" r="4.5" fill="#1F6F7A"/><circle cx="64" cy="30" r="4.5" fill="#1F6F7A"/><circle cx="76" cy="30" r="4.5" fill="#1F6F7A"/><circle cx="88" cy="30" r="4.5" fill="#1F6F7A"/></svg>
