<svg xmlns="http://www.w3.org/2000/svg" viewBox="0 0 360 200"><rect width="360" height="120" fill="#EAF0F1"/><rect y="98" width="360" height="22" fill="#DCE6E7"/><rect y="120" width="360" height="80" fill="#C9B79A"/><rect y="120" width="360" height="3" fill="#AA9B82"/><rect x="0" y="136" width="300" height="64" fill="#F4F2EC"/><rect x="0" y="136" width="300" height="5" fill="#DDDAD0"/><ellipse cx="150" cy="150" rx="120" ry="18" fill="#FFFFFF"/><g transform="translate(110 140) scale(1.25)"><path d="M-70 -26H-10V30H-70Z" fill="#8A5F78"/><rect x="-14" y="-24" width="6" height="52" fill="#734F64"/><path d="M-10 -22Q20 -28 44 -24Q54 -10 52 16Q44 30 20 30Q0 30-10 26Z" fill="#D9A27A"/><rect x="40" y="-26" width="54" height="13" rx="6.5" fill="#D9A27A"/><rect x="44" y="-11" width="56" height="13" rx="6.5" fill="#C3916D"/><rect x="42" y="4" width="50" height="12" rx="6" fill="#D9A27A"/><rect x="36" y="18" width="38" height="11" rx="5.5" fill="#C3916D"/><path d="M10 -22Q20 -40 36 -44Q44 -44 42 -36Q34 -30 26 -20Z" fill="#D9A27A"/><path d="M84 -22v5M90 -7v5M82 8v5" fill="none" stroke="#C3916D" stroke-width="1" stroke-linecap="round" stroke-linejoin="round"/></g><g transform="translate(140 138) scale(1.25)"><rect x="-14" y="-12" width="30" height="22" rx="3" fill="#F7F9F9"/><rect x="-14" y="-12" width="30" height="4" rx="1.5" fill="#E3E8EA"/><rect x="-4" y="-22" width="9" height="8" rx="2" fill="#E8B630"/><rect x="-1.5" y="-15" width="4" height="6" rx="1" fill="#F4F7F8"/><path d="M0 -2h10" fill="none" stroke="#C9D2D4" stroke-width="2" stroke-linecap="round" stroke-linejoin="round"/></g><rect x="316.4" y="18" width="3.2" height="174" fill="#9AA4A8"/><path d="M318 192h-12M318 192h12M318 190l-8 4M318 190l8 4" fill="none" stroke="#7F898D" stroke-width="2.4" stroke-linecap="round" stroke-linejoin="round"/><path d="M309 20h18" fill="none" stroke="#9AA4A8" stroke-width="2.4" stroke-linecap="round" stroke-linejoin="round"/><path d="M325 20v6" fill="none" stroke="#9AA4A8" stroke-width="1.4" stroke-linecap="round" stroke-linejoin="round"/><path d="M318 26h14q3 0 3 3v20q0 6-6 8h-8q-6 -2-6 -8v-20q0 -3 3 -3Z" fill="#DCEFF5"/><path d="M318 44h14v6h-14Z" fill="#B8DCE6"/><path d="M321 32h8M321 36h5M321 40h8" fill="none" stroke="#9CC3CF" stroke-width="1" stroke-linecap="round" stroke-linejoin="round"/><rect x="323" y="57" width="4" height="8" rx="1.5" fill="#E9F3F5"/><rect x="323" y="61" width="4" height="4" rx="1" fill="#B8DCE6"/><path d="M325 65Q318 100 250 90Q170 96 142 112" fill="none" stroke="#B7C9CE" stroke-width="2" stroke-linecap="round" stroke-linejoin="round"/></svg>
