<svg xmlns="http://www.w3.org/2000/svg" viewBox="0 0 360 200"><rect width="360" height="200" fill="#EAF0F1"/><rect width="360" height="146" fill="#EAF0F1"/><rect y="124" width="360" height="22" fill="#DEE4E4"/><rect y="146" width="360" height="54" fill="#C9B79A"/><rect y="146" width="360" height="3" fill="#AA9B82"/><rect x="146" y="20" width="4" height="152" fill="#D3DBDB"/><rect x="150" y="40" width="10" height="132" fill="#F2C318"/><path d="M150 172h8" stroke="#7A5C00" stroke-width="1.1"/><path d="M150 166h4" stroke="#7A5C00" stroke-width="1.1"/><path d="M150 160h4" stroke="#7A5C00" stroke-width="1.1"/><path d="M150 154h4" stroke="#7A5C00" stroke-width="1.1"/><path d="M150 148h4" stroke="#7A5C00" stroke-width="1.1"/><path d="M150 142h8" stroke="#7A5C00" stroke-width="1.1"/><path d="M150 136h4" stroke="#7A5C00" stroke-width="1.1"/><path d="M150 130h4" stroke="#7A5C00" stroke-width="1.1"/><path d="M150 124h4" stroke="#7A5C00" stroke-width="1.1"/><path d="M150 118h4" stroke="#7A5C00" stroke-width="1.1"/><path d="M150 112h8" stroke="#7A5C00" stroke-width="1.1"/><path d="M150 106h4" stroke="#7A5C00" stroke-width="1.1"/><path d="M150 100h4" stroke="#7A5C00" stroke-width="1.1"/><path d="M150 94h4" stroke="#7A5C00" stroke-width="1.1"/><path d="M150 88h4" stroke="#7A5C00" stroke-width="1.1"/><path d="M150 82h8" stroke="#7A5C00" stroke-width="1.1"/><path d="M150 76h4" stroke="#7A5C00" stroke-width="1.1"/><path d="M150 70h4" stroke="#7A5C00" stroke-width="1.1"/><path d="M150 64h4" stroke="#7A5C00" stroke-width="1.1"/><path d="M150 58h4" stroke="#7A5C00" stroke-width="1.1"/><path d="M150 52h8" stroke="#7A5C00" stroke-width="1.1"/><path d="M150 46h4" stroke="#7A5C00" stroke-width="1.1"/><g transform="translate(176 174)"><ellipse cx="-6" cy="-1" rx="6" ry="2.6" fill="#4A3A30"/><ellipse cx="6" cy="-1" rx="6" ry="2.6" fill="#4A3A30"/><path d="M-11 -40L-12 -2H-1L0 -30L1 -2H12L11 -40Z" fill="#5E7F86"/><path d="M-15 -78Q-15 -84-9 -84H9Q15 -84 15 -78L13 -38H-13Z" fill="#E3A93B"/><path d="M5 -84H9Q15 -84 15 -78L13 -38H8Z" fill="#C98F2A"/><path d="M-15 -76L-17 -46" stroke="#E3A93B" stroke-width="6" stroke-linecap="round" fill="none"/><circle cx="-17" cy="-46" r="3.30" fill="#D9A27A"/><path d="M15 -76L17 -46" stroke="#E3A93B" stroke-width="6" stroke-linecap="round" fill="none"/><circle cx="17" cy="-46" r="3.30" fill="#D9A27A"/><circle cx="0" cy="-96" r="12" fill="#D9A27A"/><path d="M0 -108A12 12 0 0 1 0 -84A5.4 12 0 0 0 0 -108Z" fill="#C99671"/><path d="M-12 -98Q-12 -109 0 -109Q12 -109 12 -98Q7 -104 0 -104Q-7 -104-12 -98Z" fill="#3B2A22"/></g><rect x="160" y="62" width="40" height="8" rx="1.5" fill="#1F6F7A"/><rect x="160" y="67" width="40" height="3" fill="#155058"/><path d="M146 70h18" stroke="#B6322D" stroke-width="3.2" stroke-linecap="round"/><g transform="translate(250 176) scale(1.25)"><path d="M-18 -50L-23 -3Q0 1 23 -3L18 -50Z" fill="#9C5B5B"/><path d="M6 -50L18 -50L23 -3Q16 -1.5 10 -1Z" fill="#834C4C"/><ellipse cx="-8" cy="-1" rx="6" ry="2.6" fill="#4A3A30"/><ellipse cx="8" cy="-1" rx="6" ry="2.6" fill="#4A3A30"/><path d="M0 -106C-12 -106-17 -98-17 -86C-17 -76-21 -64-24 -44Q-12 -38 0 -40Q12 -38 24 -44C21 -64 17 -76 17 -86C17 -98 12 -106 0 -106Z" fill="#E3D3B8"/><path d="M8 -104C14 -100 17 -94 17 -86C17 -76 21 -64 24 -44Q19 -42 15 -41C16 -60 13 -74 12 -84C12 -94 11 -100 8 -104Z" fill="#BAAD96"/><ellipse cx="0" cy="-85" rx="8" ry="9.5" fill="#D9A27A"/><path d="M0 -94.5A8 9.5 0 0 1 0 -75.5A3.6 9.5 0 0 0 0 -94.5Z" fill="#C99671"/><path d="M-7.5 -90Q0 -97 7.5 -90Q4 -93.5 0 -93.5Q-4 -93.5-7.5 -90Z" fill="#3B2A22"/><path d="M-15 -62L-38 -84" stroke="#8C4F4F" stroke-width="6.5" stroke-linecap="round" fill="none"/><circle cx="-38" cy="-84" r="3.58" fill="#D9A27A"/><path d="M15 -62L18 -42" stroke="#8C4F4F" stroke-width="6.5" stroke-linecap="round" fill="none"/><circle cx="18" cy="-42" r="3.58" fill="#D9A27A"/></g></svg>