<svg xmlns="http://www.w3.org/2000/svg" viewBox="0 0 360 200"><rect width="360" height="146" fill="#EAF0F1"/><rect y="124" width="360" height="22" fill="#DEE4E4"/><rect y="146" width="360" height="54" fill="#C9B79A"/><rect y="146" width="360" height="3" fill="#AA9B82"/><rect x="14" y="150" width="332" height="44" rx="3" fill="#7A2E2A"/><path d="M19 154h322v36h-322Z" fill="none" stroke="#C9A04E" stroke-width="1.6" stroke-dasharray="5 3"/><rect x="70" y="168" width="200" height="10" rx="5" fill="#5E7F86"/><rect x="70" y="173.5" width="200" height="4.5" rx="2.25" fill="#4D686D"/><g transform="translate(106 174) scale(2.1)"><ellipse cx="-2" cy="-4" rx="13" ry="5" fill="#F4F1E8"/><path d="M38 -1Q38 -14 46 -14H54Q62 -14 62 -7V0Z" fill="#9FB9C4"/><path d="M38 -1Q50 0 62 0V-4Q50 -5 38 -5Z" fill="#879DA6"/><path d="M23 -2Q22 -16 31 -17Q38 -17 40 -13.5V-1.5Z" fill="#D9A27A"/><path d="M24 -3Q32 -1.5 40 -2V-5Q32 -6 24 -5Z" fill="#C99671"/><circle cx="32.5" cy="-11.5" r="0.9" fill="#C99671"/><path d="M6 -2Q6 -17 18 -17H25Q22 -10 24 -2Z" fill="#E8C7C2"/><path d="M22 -17Q27 -17 26 -9Q25.5 -4 24 -2Q22 -10 22 -17Z" fill="#D4AFA9"/><path d="M10 -15Q20 -21 28 -15Q20 -13 12 -12Z" fill="#E8C7C2"/><circle cx="0" cy="-11" r="8.5" fill="#D9A27A"/><path d="M0 -19.5A8.5 8.5 0 0 1 0 -2.5A3.83 8.5 0 0 0 0 -19.5Z" fill="#C99671"/><path d="M-8.5 -12Q-8 -20 0 -20Q8 -20 8.5 -12Q4 -17 0 -17Q-5 -17-8.5 -12Z" fill="#3B2A22"/></g><g transform="translate(176 112) scale(1.3 1.3)"><path d="M0 -12V12" stroke="#1F6F7A" stroke-width="2.6" stroke-linecap="round"/><path d="M-5 -7L0 -12L5 -7M-5 7L0 12L5 7" fill="none" stroke="#1F6F7A" stroke-width="2.6" stroke-linecap="round" stroke-linejoin="round"/></g><path d="M156 98q-7 14 0 28M196 98q7 14 0 28" fill="none" stroke="#1F6F7A" stroke-width="2.2" stroke-linecap="round" stroke-linejoin="round" opacity=".55"/><circle cx="250" cy="56" r="21" fill="#8A6040"/><circle cx="250" cy="56" r="18" fill="#F7F4EC"/><path d="M250 56V38A18 18 0 0 1 268 56Z" fill="#CFE5D2"/><path d="M250 56v-14M250 56l9 5" fill="none" stroke="#22201D" stroke-width="2.4" stroke-linecap="round" stroke-linejoin="round"/></svg>
